<?xml version="1.0" encoding="UTF-8" standalone="no"?>
<!-- Created with Inkscape (http://www.inkscape.org/) -->

<svg
   width="800"
   height="256.08252"
   viewBox="0 0 211.66664 67.755158"
   version="1.1"
   id="svg1"
   xmlns="http://www.w3.org/2000/svg"
   xmlns:svg="http://www.w3.org/2000/svg">
  <defs
     id="defs1" />
  <g
     id="layer1">
    <path
       style="fill:none;stroke:#6e787d;stroke-width:3.43958;stroke-linecap:round;stroke-dasharray:none;stroke-opacity:1"
       d="m 101.3378,46.434373 h 29.36416"
       id="path163" />
    <g
       id="g207"
       transform="translate(0.1488651)">
      <path
         style="fill:none;fill-opacity:1;stroke:#918a6f;stroke-width:0.540503;stroke-linecap:round;stroke-dasharray:none;stroke-opacity:1"
         d="m 126.6928,37.195565 h 0.17763"
         id="path206" />
      <path
         style="fill:none;fill-opacity:1;stroke:#6e787d;stroke-width:2.64583;stroke-linecap:round;stroke-dasharray:none;stroke-opacity:1"
         d="m 123.72973,35.055738 h 6.10377"
         id="path171" />
      <path
         style="fill:none;fill-opacity:1;stroke:#918a6f;stroke-width:1.36138;stroke-linecap:round;stroke-dasharray:none;stroke-opacity:1"
         d="m 126.21819,36.341973 h 1.12685"
         id="path205" />
      <path
         style="fill:#484537;fill-opacity:1;stroke:none;stroke-width:8.92972;stroke-linecap:round;stroke-dasharray:none;stroke-opacity:1"
         id="path207"
         d="m 127.09733,35.180637 a 0.31571212,0.31571212 0 0 1 -0.31512,0.315712 0.31571212,0.31571212 0 0 1 -0.3163,-0.314517 0.31571212,0.31571212 0 0 1 0.31391,-0.316902 0.31571212,0.31571212 0 0 1 0.3175,0.313318" />
    </g>
    <g
       id="g168"
       transform="translate(2.1132951,0.98221551)">
      <path
         style="fill:none;stroke:#6e787d;stroke-width:5.29167;stroke-linecap:round;stroke-dasharray:none;stroke-opacity:1"
         d="m 121.97183,40.282812 h 5.69071"
         id="path166" />
      <path
         style="fill:none;stroke:#24221c;stroke-width:1.32292;stroke-linecap:round;stroke-dasharray:none;stroke-opacity:1"
         d="m 120.94765,40.282812 h 7.73907"
         id="path167" />
      <path
         style="fill:#484537;fill-opacity:1;stroke:none;stroke-width:8.92972;stroke-linecap:round;stroke-dasharray:none;stroke-opacity:1"
         id="path168"
         d="m 128.04694,38.747013 a 0.31571212,0.31571212 0 0 1 -0.31511,0.315712 0.31571212,0.31571212 0 0 1 -0.31631,-0.314517 0.31571212,0.31571212 0 0 1 0.31392,-0.316902 0.31571212,0.31571212 0 0 1 0.31749,0.313318" />
    </g>
    <g
       id="g51"
       style="display:inline">
      <path
         style="fill:#80898c;fill-opacity:1;stroke:#80898c;stroke-width:3.96875;stroke-linecap:round;stroke-dasharray:none;stroke-opacity:1"
         d="M 16.933965,1.9945284 H 33.730878"
         id="path4" />
      <g
         id="g12"
         style="display:inline">
        <path
           style="fill:#6e787d;fill-opacity:1;stroke:#6e787d;stroke-width:5.29167;stroke-linecap:round;stroke-dasharray:none;stroke-opacity:1"
           d="m 33.657455,26.16019 v 2.492785"
           id="path5" />
        <path
           style="fill:#6e787d;fill-opacity:1;stroke:#80898c;stroke-width:3.96875;stroke-linecap:round;stroke-dasharray:none;stroke-opacity:1"
           d="m 33.657455,27.740361 v 2.672236"
           id="path6" />
        <circle
           style="fill:#6c6056;fill-opacity:1;stroke:none;stroke-width:0.264583;stroke-linecap:round;stroke-dasharray:none;stroke-opacity:1"
           id="path7"
           r="0.25449872"
           cy="31.398781"
           cx="33.657455" />
      </g>
    </g>
    <g
       id="g215"
       style="display:inline">
      <path
         style="display:inline;fill:#53676c;fill-opacity:1;stroke:none;stroke-width:0.475016;stroke-linecap:round;stroke-linejoin:round;stroke-dasharray:none;stroke-opacity:1"
         id="path239"
         d="m 79.64759,51.267796 a 1.7672337,1.6754292 0 0 1 -1.766529,1.675429 1.7672337,1.6754292 0 0 1 -1.767938,-1.674093 1.7672337,1.6754292 0 0 1 1.765118,-1.676764 1.7672337,1.6754292 0 0 1 1.769346,1.672754" />
    </g>
    <g
       id="g316"
       transform="translate(-29.63486)">
      <g
         id="g301"
         transform="translate(56.386322,0.15435724)">
        <path
           style="fill:none;fill-opacity:1;stroke:#1a1a1a;stroke-width:4.00047;stroke-linecap:round;stroke-dasharray:none;stroke-opacity:1"
           d="M 113.68235,3.8609949 V 6.4862797"
           id="path296" />
        <g
           id="g298"
           style="display:inline">
          <path
             style="fill:none;fill-opacity:1;stroke:#999999;stroke-width:3.00035;stroke-linecap:round;stroke-dasharray:none;stroke-opacity:1"
             d="M 113.68235,3.8609948 V 6.4862799"
             id="path297" />
          <path
             style="fill:none;fill-opacity:1;stroke:#e3dbdb;stroke-width:1.5875;stroke-linecap:round;stroke-dasharray:none;stroke-opacity:1"
             d="M 113.68235,3.8609948 V 6.4862799"
             id="path298" />
        </g>
      </g>
      <g
         id="g306"
         transform="translate(-12.830467,0.15435724)">
        <path
           style="fill:none;fill-opacity:1;stroke:#1a1a1a;stroke-width:4.00047;stroke-linecap:round;stroke-dasharray:none;stroke-opacity:1"
           d="M 113.68235,3.8609949 V 6.4862797"
           id="path301" />
        <g
           id="g303"
           style="display:inline">
          <path
             style="fill:none;fill-opacity:1;stroke:#999999;stroke-width:3.00035;stroke-linecap:round;stroke-dasharray:none;stroke-opacity:1"
             d="M 113.68235,3.8609948 V 6.4862799"
             id="path302" />
          <path
             style="fill:none;fill-opacity:1;stroke:#e3dbdb;stroke-width:1.5875;stroke-linecap:round;stroke-dasharray:none;stroke-opacity:1"
             d="M 113.68235,3.8609948 V 6.4862799"
             id="path303" />
        </g>
      </g>
    </g>
  </g>
  <g
     id="layer3">
    <path
       style="fill:#80898c;fill-opacity:1;stroke-width:3.25778;stroke-linecap:round;stroke-dasharray:none"
       d="M 0.02388775,54.509444 H 12.886852 c 0,0 0.44246,-0.07142 0.32131,0.311211 -0.121152,0.382635 -0.163291,5.372204 -5.230517,6.32114 0,0 -2.0753519,1.153009 -0.9165262,2.826401 1.1588257,1.673396 2.7074373,1.173417 3.5396852,2.622331 0.684753,1.076273 0.418757,1.142806 0.418757,1.142806 H 0.8939051 c 0,0 -0.77471743,-1.109107 0.47675,-4.197147 C 2.6221231,60.448145 0,58.687675 0,58.687675 Z"
       id="path2" />
    <g
       id="g326"
       transform="matrix(-1.0036093,0,0,1,359.3353,0)">
      <path
         style="fill:#6e787d;fill-opacity:1;stroke:#beb9aa;stroke-width:2.64583;stroke-linecap:round;stroke-dasharray:none;stroke-opacity:1"
         d="m 141.42019,49.27656 h 10.58447"
         id="path327"
         transform="matrix(0.99640368,0,0,1,12.683467,0)" />
      <path
         style="fill:#6e787d;fill-opacity:1;stroke:#aaa596;stroke-width:3.96686;stroke-linecap:round;stroke-dasharray:none;stroke-opacity:1"
         d="m 139.56676,51.738699 h 67.47253"
         id="path326"
         transform="matrix(0.99640368,0,0,1,12.683467,0)" />
      <path
         style="fill:none;fill-opacity:1;stroke:#6e787d;stroke-width:1.67695;stroke-linecap:round;stroke-dasharray:none;stroke-opacity:1"
         d="m 150.61048,54.256906 h 69.50364"
         id="path316" />
    </g>
  </g>
  <g
     id="layer4">
    <g
       id="g163"
       transform="translate(-7.3091188)">
      <path
         style="fill:none;stroke:#80898c;stroke-width:2.64583;stroke-linecap:round;stroke-dasharray:none;stroke-opacity:1"
         d="m 115.85443,54.807496 14.94896,-0.06615"
         id="path24" />
      <path
         style="fill:none;stroke:#80898c;stroke-width:2.64583;stroke-linecap:round;stroke-dasharray:none;stroke-opacity:1"
         d="M 123.32891,56.900558 V 66.35797"
         id="path25" />
    </g>
    <g
       id="g212"
       style="display:inline">
      <path
         style="display:inline;fill:#53676c;fill-opacity:1;stroke:none;stroke-width:0.475016;stroke-linecap:round;stroke-linejoin:round;stroke-dasharray:none;stroke-opacity:1"
         id="path240"
         d="m 84.088485,47.13583 a 1.7672337,1.6754292 0 0 1 -1.766529,1.675429 1.7672337,1.6754292 0 0 1 -1.767938,-1.674092 1.7672337,1.6754292 0 0 1 1.765118,-1.676765 1.7672337,1.6754292 0 0 1 1.769346,1.672755" />
      <g
         id="g1"
         style="display:inline">
        <path
           style="display:inline;fill:#93aca7;fill-opacity:1;stroke:none;stroke-width:0.403851;stroke-linecap:round;stroke-linejoin:round;stroke-dasharray:none;stroke-opacity:1"
           id="path238"
           d="m 76.897614,53.604092 a 1.5024726,1.424422 0 0 1 -1.501873,1.424422 1.5024726,1.424422 0 0 1 -1.503072,-1.423286 1.5024726,1.424422 0 0 1 1.500675,-1.425557 1.5024726,1.424422 0 0 1 1.504268,1.422148" />
        <path
           style="display:inline;fill:#6f918a;fill-opacity:1;stroke:none;stroke-width:0.531003;stroke-linecap:round;stroke-linejoin:round;stroke-dasharray:none;stroke-opacity:1"
           id="path236"
           d="m 65.235431,53.619007 a 1.9755247,1.8729 0 0 1 -1.974736,1.8729 1.9755247,1.8729 0 0 1 -1.976312,-1.871406 1.9755247,1.8729 0 0 1 1.97316,-1.874393 1.9755247,1.8729 0 0 1 1.977886,1.869911" />
        <path
           style="display:inline;fill:#6f918a;fill-opacity:1;stroke:none;stroke-width:0.465312;stroke-linecap:round;stroke-linejoin:round;stroke-dasharray:none;stroke-opacity:1"
           id="path235"
           d="m 50.497152,56.013229 a 1.7311299,1.641201 0 0 1 -1.73044,1.641201 1.7311299,1.641201 0 0 1 -1.73182,-1.639891 1.7311299,1.641201 0 0 1 1.729058,-1.642509 1.7311299,1.641201 0 0 1 1.733199,1.638581" />
        <path
           style="fill:#72898c;fill-opacity:1;stroke:none;stroke-width:4.81543;stroke-linecap:round;stroke-dasharray:none;stroke-opacity:1"
           id="path212"
           d="m 94.204935,38.693726 a 3.5141006,3.5141006 0 0 1 -3.512699,3.5141 3.5141006,3.5141006 0 0 1 -3.515501,-3.511297 3.5141006,3.5141006 0 0 1 3.509894,-3.516901 3.5141006,3.5141006 0 0 1 3.518301,3.50849" />
        <path
           style="fill:#72898c;fill-opacity:1;stroke:#72898c;stroke-width:1.32292;stroke-linecap:round;stroke-dasharray:none;stroke-opacity:1"
           d="m 73.563983,67.052189 c -9.982593,-0.0031 -19.965193,-0.0061 -25.600884,0.0259 -5.635691,0.03203 -6.924477,0.09916 -7.216594,-0.92823 -0.292117,-1.027388 0.412434,-3.14929 1.591285,-4.781391 1.17885,-1.632102 2.832,-2.774402 4.979502,-3.969039 2.147502,-1.194637 4.789356,-2.44161 6.433405,-3.110607 1.644048,-0.668997 2.290286,-0.760017 5.016383,-0.559769 2.726097,0.200249 7.531854,0.691746 10.253356,0.955704 2.721503,0.263958 3.358631,0.300365 4.519153,-0.118336 1.160521,-0.418701 2.844356,-1.292475 4.764898,-2.949062 1.920542,-1.656588 4.077672,-4.095874 6.462421,-6.821952 2.384749,-2.726077 4.99693,-5.738731 6.639867,-7.352085 1.642937,-1.613355 2.316477,-1.827251 3.021883,-1.739645 0.705407,0.08761 1.442664,0.476716 1.864897,5.698103 0.422232,5.221388 0.529438,15.275022 -0.572771,20.36037 -1.102208,5.085348 -3.413827,5.202386 -7.305669,5.255979 -3.891843,0.05359 -9.363896,0.04374 -14.835973,0.03389"
           id="path201" />
        <path
           style="display:inline;fill:none;fill-opacity:1;stroke:#374548;stroke-width:0.264583;stroke-linecap:round;stroke-linejoin:round;stroke-dasharray:none;stroke-opacity:1"
           id="path234"
           d="m 70.797377,71.37706 a 0.59418303,0.31528077 0 0 1 -0.593946,0.315281 0.59418303,0.31528077 0 0 1 -0.59442,-0.31503 0.59418303,0.31528077 0 0 1 0.593472,-0.315532 0.59418303,0.31528077 0 0 1 0.594893,0.314778"
           transform="rotate(-24.637077)" />
      </g>
    </g>
  </g>
  <g
     id="layer2">
    <rect
       style="display:inline;fill:#000000;fill-opacity:0.7;stroke:none;stroke-width:2.33798;stroke-linecap:round;stroke-dasharray:none;stroke-opacity:1;paint-order:stroke fill markers"
       id="rect360"
       width="211.66664"
       height="67.733322"
       x="0"
       y="4.4408921e-16" />
  </g>
</svg>
