<?xml version="1.0" encoding="UTF-8" standalone="no"?>
<!-- Created with Inkscape (http://www.inkscape.org/) -->

<svg
   width="165"
   height="256"
   viewBox="12 0 43.656035 67.733"
   version="1.1"
   id="svg1"
   xmlns="http://www.w3.org/2000/svg"
   xmlns:svg="http://www.w3.org/2000/svg">
  <defs
     id="defs1">
    <linearGradient
       id="swatch27">
      <stop
         style="stop-color:#ffd268;stop-opacity:1;"
         offset="0"
         id="stop27" />
    </linearGradient>
    <linearGradient
       id="swatch26">
      <stop
         style="stop-color:#ffd268;stop-opacity:1;"
         offset="0"
         id="stop26" />
    </linearGradient>
  </defs>
  <g
     id="g28"
     style="display:inline">
    <g
       id="g152"
       style="display:inline">
      <path
         style="display:inline;fill:none;fill-opacity:1;stroke:#784421;stroke-width:4.57102;stroke-linecap:round;stroke-dasharray:none;stroke-opacity:1;paint-order:normal"
         d="m 47.973,32.639456 c 0.424165,11.600898 0.84833,23.201797 1.272495,34.802695"
         id="path144"
         transform="matrix(1.4708571,-1.0484993,0.20344595,0.39589529,-45.27676,75.265825)" />
      <path
         style="display:inline;fill:none;fill-opacity:1;stroke:#784421;stroke-width:4.63021;stroke-linecap:round;stroke-dasharray:none;stroke-opacity:1;paint-order:normal"
         id="path145"
         d="m 33.731983,44.388511 a 1.5906168,2.3223004 0 0 1 -1.880405,-1.77366 1.5906168,2.3223004 0 0 1 1.196804,-2.762222 1.5906168,2.3223004 0 0 1 1.903287,1.720847 1.5906168,2.3223004 0 0 1 -1.160414,2.795124" />
      <path
         style="display:inline;fill:none;fill-opacity:1;stroke:#784421;stroke-width:4.07723;stroke-linecap:round;stroke-dasharray:none;stroke-opacity:1;paint-order:normal"
         d="m 49.627244,56.625957 c -0.02121,5.853469 -0.04241,11.706938 -0.06362,17.56041"
         id="path146"
         transform="matrix(1.7299378,-0.34342729,0.18194336,0.91649874,-55.35566,14.610542)" />
      <path
         style="display:inline;fill:#502d16;fill-opacity:1;stroke:none;stroke-width:4.07723;stroke-linecap:round;stroke-dasharray:none;stroke-opacity:1;paint-order:normal"
         d="m 50.496893,46.397231 c 0.07873,-0.121846 0.176209,0.163085 0.146215,0.427401 -0.02999,0.264316 -0.187454,0.508004 -0.236193,0.365532 -0.04874,-0.142472 0.01125,-0.671086 0.08998,-0.792933 z"
         id="path147"
         transform="matrix(7.7105206,-8.6996991,2.8785844,4.7627621,-479.31872,267.06633)" />
    </g>
  </g>
  <g
     id="layer1"
     style="display:inline">
    <g
       id="g144"
       style="display:inline">
      <path
         style="fill:none;fill-opacity:1;stroke:#a05a2c;stroke-width:4.57102;stroke-linecap:round;stroke-dasharray:none;stroke-opacity:1;paint-order:normal"
         d="m 47.973,32.639456 c 0.424165,11.600898 0.84833,23.201797 1.272495,34.802695"
         id="path135"
         transform="matrix(1.5219678,0.97282357,-0.29126324,0.3365844,-29.193831,-19.947017)" />
      <path
         style="fill:none;fill-opacity:1;stroke:#a05a2c;stroke-width:4.63021;stroke-linecap:round;stroke-dasharray:none;stroke-opacity:1;paint-order:normal"
         id="path136"
         d="m 30.488165,43.901664 a 1.5906168,2.3223004 0 0 1 -1.880406,-1.77366 1.5906168,2.3223004 0 0 1 1.196805,-2.762222 1.5906168,2.3223004 0 0 1 1.903287,1.720848 1.5906168,2.3223004 0 0 1 -1.160414,2.795123" />
      <path
         style="fill:none;fill-opacity:1;stroke:#a05a2c;stroke-width:4.07723;stroke-linecap:round;stroke-dasharray:none;stroke-opacity:1;paint-order:normal"
         d="m 49.627244,56.625957 c -0.02121,5.853469 -0.04241,11.706938 -0.06362,17.56041"
         id="path137"
         transform="matrix(1.4276748,1.035554,-0.54862313,0.75636366,-13.895092,-43.305835)" />
      <path
         style="fill:#784421;fill-opacity:1;stroke:none;stroke-width:4.07723;stroke-linecap:round;stroke-dasharray:none;stroke-opacity:1;paint-order:normal"
         d="m 50.496893,46.397231 c 0.07873,-0.121846 0.176209,0.163085 0.146215,0.427401 -0.02999,0.264316 -0.187454,0.508004 -0.236193,0.365532 -0.04874,-0.142472 0.01125,-0.671086 0.08998,-0.792933 z"
         id="path138"
         transform="matrix(11.594895,0.83386849,-2.0318765,5.1808908,-461.52362,-231.46159)" />
    </g>
  </g>
  <g
     id="layer2"
     style="display:inline">
    <path
       style="display:inline;fill:none;stroke:#d26e28;stroke-width:5.29167;stroke-linecap:round;stroke-dasharray:none;stroke-opacity:1;paint-order:normal"
       d="m 34.675446,37.983928 c -0.190874,3.520566 -0.381748,7.04113 -0.572622,10.561697"
       id="path2"
       transform="matrix(2.1224953,-0.07058255,0.12544899,1.1942,-45.236651,-20.02612)" />
  </g>
  <g
     id="layer5"
     style="display:inline">
    <g
       id="g42"
       transform="matrix(1.579434,0,0,1.0181166,-1.8760762,2.7924754)"
       style="display:inline">
      <path
         style="fill:none;fill-opacity:1;stroke:#d45500;stroke-width:5.82083;stroke-linecap:round;stroke-linejoin:bevel;stroke-dasharray:none;stroke-opacity:1;paint-order:normal"
         d="M 14.846514,10.077633 V 17.54588"
         id="path40" />
      <path
         style="fill:none;fill-opacity:1;stroke:#2b1100;stroke-width:7.9375;stroke-linecap:round;stroke-linejoin:bevel;stroke-dasharray:none;stroke-opacity:1;paint-order:normal"
         d="m 14.846514,19.32933 v 13.889"
         id="path37" />
      <path
         style="fill:none;fill-opacity:1;stroke:#6c5d53;stroke-width:2.64583;stroke-linecap:round;stroke-linejoin:bevel;stroke-dasharray:none;stroke-opacity:1;paint-order:normal"
         d="m 10.257591,18.535647 v 8.368036"
         id="path38" />
      <path
         style="fill:none;fill-opacity:1;stroke:#803300;stroke-width:2.06283;stroke-linecap:round;stroke-linejoin:bevel;stroke-dasharray:none;stroke-opacity:1;paint-order:normal"
         d="m 10.527528,29.534174 v 5.086588"
         id="path39" />
      <path
         style="fill:#483e37;fill-opacity:1;stroke:#483e37;stroke-width:3.96875;stroke-linecap:round;stroke-linejoin:bevel;stroke-dasharray:none;stroke-opacity:1;paint-order:normal"
         d="m 14.576579,27.08897 v 2.238809"
         id="path41" />
      <path
         style="fill:#483e37;fill-opacity:1;stroke:#803300;stroke-width:2.11667;stroke-linecap:round;stroke-linejoin:bevel;stroke-dasharray:none;stroke-opacity:1;paint-order:normal"
         d="m 14.846516,18.450999 v 2.238809"
         id="path42" />
    </g>
  </g>
  <g
     id="layer6"
     style="display:inline">
    <g
       id="g135"
       style="display:inline"
       transform="translate(0.7937499,0.59531243)">
      <path
         style="fill:none;fill-opacity:1;stroke:#ff8500;stroke-width:4.07723;stroke-linecap:round;stroke-dasharray:none;stroke-opacity:1;paint-order:normal"
         d="m 50.928041,23.844401 c -0.539873,2.249471 -1.079747,4.498945 -1.229709,6.103578 -0.149962,1.604634 0.08998,2.564387 0.32992,3.524161"
         id="path131"
         transform="matrix(1.1765443,-0.43038955,0.33336035,0.91129815,-35.232748,25.637758)" />
      <path
         style="fill:none;fill-opacity:1;stroke:#552200;stroke-width:4.07723;stroke-linecap:round;stroke-dasharray:none;stroke-opacity:1;paint-order:normal"
         d="m 46.069183,34.641865 c -0.209951,1.439664 -0.419902,2.879325 -0.344916,3.959079 0.07499,1.079754 0.434894,1.799568 0.794811,2.519402"
         id="path132"
         transform="matrix(0.69109575,-1.0254315,0.88482465,0.44614706,-27.979962,65.975523)" />
    </g>
  </g>
  <g
     id="layer4">
    <g
       id="g19"
       transform="translate(-3.3721076,-1.336118)"
       style="display:inline">
      <path
         style="fill:#eabf90;fill-opacity:1;stroke:none;stroke-width:0.297371;stroke-linecap:round;stroke-dasharray:none;stroke-opacity:1;paint-order:normal"
         id="path14"
         d="m 37.562275,21.224986 a 3.9687495,3.9687495 0 0 1 -4.691801,-3.031138 3.9687495,3.9687495 0 0 1 2.986147,-4.720563 3.9687495,3.9687495 0 0 1 4.748895,2.940883 3.9687495,3.9687495 0 0 1 -2.89535,4.776792"
         clip-path="none" />
      <g
         id="g18">
        <path
           id="path13-2"
           style="fill:#d26e28;fill-opacity:1;stroke:#d26e28;stroke-width:0.264583;stroke-linecap:round;stroke-dasharray:none;stroke-opacity:1;paint-order:normal"
           d="m 40.239347,20.742285 c -0.960831,0.0338 -1.881699,0.216546 -2.60544,0.423328 -0.964988,0.275709 -1.579842,0.594191 -2.131261,2.895286 -0.55142,2.301095 -1.039562,6.585113 -1.156208,8.758956 -0.116645,2.173843 0.138164,2.237519 0.986495,1.908792 0.848331,-0.328726 2.290592,-1.049909 4.019077,-0.975689 1.728485,0.07422 3.742747,0.943668 4.856199,1.399653 1.113453,0.455985 1.32564,0.498329 1.611953,-0.805977 0.03378,-0.153908 0.06859,-0.326427 0.103607,-0.514859 -0.101795,0.0081 -0.230249,-0.03714 -0.399174,-0.131575 -0.615491,-0.344066 -1.765305,-1.344809 -2.243132,-2.877488 -0.477828,-1.532679 -0.283707,-3.596741 -0.137931,-4.926118 0.145776,-1.329379 0.243268,-1.92395 0.672494,-2.39314 0.39863,-0.435753 1.083545,-0.763492 1.678694,-0.256794 -0.28245,-0.947053 -0.377878,-1.218864 -1.04243,-1.571909 -0.678665,-0.360542 -1.951167,-0.806079 -3.244882,-0.912126 -0.323428,-0.02651 -0.647784,-0.03161 -0.968061,-0.02034 z"
           transform="matrix(0.81299775,0,0,0.81299775,3.7168652,-5.9746912)" />
        <path
           style="fill:#deffeb;fill-opacity:0.480447;stroke:none;stroke-width:0.228292;stroke-linecap:round;stroke-dasharray:none;stroke-opacity:1;paint-order:normal"
           d="m 40.813855,13.031857 c -0.506976,-0.559454 -1.125882,-0.279729 -1.474842,0.101728 -0.34896,0.381451 -0.427967,0.864605 -0.546483,1.945387 -0.118515,1.080781 -0.276531,2.759109 0.111942,4.005173 0.388472,1.246065 1.323398,2.059801 1.823791,2.339526 0.500392,0.279725 0.566232,0.02543 0.724253,-0.902769 0.158021,-0.928201 0.408213,-2.530243 0.335784,-4.03061 -0.07243,-1.500369 -0.467469,-2.898977 -0.974445,-3.458431 z"
           id="path15" />
      </g>
      <path
         style="fill:none;fill-opacity:1;stroke:#6c5d53;stroke-width:0.876319;stroke-linecap:round;stroke-linejoin:bevel;stroke-dasharray:none;stroke-opacity:1;paint-order:normal"
         d="m 22.038492,15.109523 c -0.322825,0.765941 -0.64565,1.531882 -1.091913,1.973772 -0.446264,0.44189 -1.015943,0.559724 -1.88948,0.500803 -0.873538,-0.05892 -2.050875,-0.29459 -2.791476,-0.824865 -0.7406,-0.530275 -1.044429,-1.355117 -1.348264,-2.179976"
         id="path43"
         transform="matrix(1.579434,0,0,1.0181166,1.4960314,4.1285934)" />
    </g>
  </g>
</svg>
