<?xml version="1.0" encoding="UTF-8" standalone="no"?>
<!-- Created with Inkscape (http://www.inkscape.org/) -->

<svg
   width="216.38245"
   height="123.68897"
   viewBox="0 0 57.251182 32.726037"
   version="1.1"
   id="svg1"
   xmlns="http://www.w3.org/2000/svg"
   xmlns:svg="http://www.w3.org/2000/svg">
  <defs
     id="defs1" />
  <g
     id="layer4"
     transform="translate(-40.010181,-35.029125)">
    <g
       id="g212"
       style="display:inline">
      <path
         style="display:inline;fill:#53676c;fill-opacity:1;stroke:none;stroke-width:0.475016;stroke-linecap:round;stroke-linejoin:round;stroke-dasharray:none;stroke-opacity:1"
         id="path240"
         d="m 84.088485,47.13583 a 1.7672337,1.6754292 0 0 1 -1.766529,1.675429 1.7672337,1.6754292 0 0 1 -1.767938,-1.674092 1.7672337,1.6754292 0 0 1 1.765118,-1.676765 1.7672337,1.6754292 0 0 1 1.769346,1.672755" />
      <g
         id="g1"
         style="display:inline">
        <path
           style="display:inline;fill:#93aca7;fill-opacity:1;stroke:none;stroke-width:0.403851;stroke-linecap:round;stroke-linejoin:round;stroke-dasharray:none;stroke-opacity:1"
           id="path238"
           d="m 76.897614,53.604092 a 1.5024726,1.424422 0 0 1 -1.501873,1.424422 1.5024726,1.424422 0 0 1 -1.503072,-1.423286 1.5024726,1.424422 0 0 1 1.500675,-1.425557 1.5024726,1.424422 0 0 1 1.504268,1.422148" />
        <path
           style="display:inline;fill:#6f918a;fill-opacity:1;stroke:none;stroke-width:0.531003;stroke-linecap:round;stroke-linejoin:round;stroke-dasharray:none;stroke-opacity:1"
           id="path236"
           d="m 65.235431,53.619007 a 1.9755247,1.8729 0 0 1 -1.974736,1.8729 1.9755247,1.8729 0 0 1 -1.976312,-1.871406 1.9755247,1.8729 0 0 1 1.97316,-1.874393 1.9755247,1.8729 0 0 1 1.977886,1.869911" />
        <path
           style="display:inline;fill:#6f918a;fill-opacity:1;stroke:none;stroke-width:0.465312;stroke-linecap:round;stroke-linejoin:round;stroke-dasharray:none;stroke-opacity:1"
           id="path235"
           d="m 50.497152,56.013229 a 1.7311299,1.641201 0 0 1 -1.73044,1.641201 1.7311299,1.641201 0 0 1 -1.73182,-1.639891 1.7311299,1.641201 0 0 1 1.729058,-1.642509 1.7311299,1.641201 0 0 1 1.733199,1.638581" />
        <path
           style="fill:#72898c;fill-opacity:1;stroke:none;stroke-width:4.81543;stroke-linecap:round;stroke-dasharray:none;stroke-opacity:1"
           id="path212"
           d="m 94.204935,38.693726 a 3.5141006,3.5141006 0 0 1 -3.512699,3.5141 3.5141006,3.5141006 0 0 1 -3.515501,-3.511297 3.5141006,3.5141006 0 0 1 3.509894,-3.516901 3.5141006,3.5141006 0 0 1 3.518301,3.50849" />
        <path
           style="fill:#72898c;fill-opacity:1;stroke:#72898c;stroke-width:1.32292;stroke-linecap:round;stroke-dasharray:none;stroke-opacity:1"
           d="m 73.563983,67.052189 c -9.982593,-0.0031 -19.965193,-0.0061 -25.600884,0.0259 -5.635691,0.03203 -6.924477,0.09916 -7.216594,-0.92823 -0.292117,-1.027388 0.412434,-3.14929 1.591285,-4.781391 1.17885,-1.632102 2.832,-2.774402 4.979502,-3.969039 2.147502,-1.194637 4.789356,-2.44161 6.433405,-3.110607 1.644048,-0.668997 2.290286,-0.760017 5.016383,-0.559769 2.726097,0.200249 7.531854,0.691746 10.253356,0.955704 2.721503,0.263958 3.358631,0.300365 4.519153,-0.118336 1.160521,-0.418701 2.844356,-1.292475 4.764898,-2.949062 1.920542,-1.656588 4.077672,-4.095874 6.462421,-6.821952 2.384749,-2.726077 4.99693,-5.738731 6.639867,-7.352085 1.642937,-1.613355 2.316477,-1.827251 3.021883,-1.739645 0.705407,0.08761 1.442664,0.476716 1.864897,5.698103 0.422232,5.221388 0.529438,15.275022 -0.572771,20.36037 -1.102208,5.085348 -3.413827,5.202386 -7.305669,5.255979 -3.891843,0.05359 -9.363896,0.04374 -14.835973,0.03389"
           id="path201" />
        <path
           style="display:inline;fill:none;fill-opacity:1;stroke:#374548;stroke-width:0.264583;stroke-linecap:round;stroke-linejoin:round;stroke-dasharray:none;stroke-opacity:1"
           id="path234"
           d="m 70.797377,71.37706 a 0.59418303,0.31528077 0 0 1 -0.593946,0.315281 0.59418303,0.31528077 0 0 1 -0.59442,-0.31503 0.59418303,0.31528077 0 0 1 0.593472,-0.315532 0.59418303,0.31528077 0 0 1 0.594893,0.314778"
           transform="rotate(-24.637077)" />
      </g>
    </g>
  </g>
</svg>
